<?xml version="1.0" encoding="UTF-8" standalone="no"?>
<!-- Created with Inkscape (http://www.inkscape.org/) -->

<svg
   xmlns:dc="http://purl.org/dc/elements/1.1/"
   xmlns:cc="http://creativecommons.org/ns#"
   xmlns:rdf="http://www.w3.org/1999/02/22-rdf-syntax-ns#"
   xmlns:svg="http://www.w3.org/2000/svg"
   xmlns="http://www.w3.org/2000/svg"
   xmlns:sodipodi="http://sodipodi.sourceforge.net/DTD/sodipodi-0.dtd"
   xmlns:inkscape="http://www.inkscape.org/namespaces/inkscape"
   width="210mm"
   height="210mm"
   viewBox="0 0 210 210"
   version="1.1"
   id="svg8"
   inkscape:version="0.92.4 (5da689c313, 2019-01-14)"
   sodipodi:docname="image.svg">
  <defs
     id="defs2">
	
	
	
	
	
</defs>
  <sodipodi:namedview
     id="base"
     pagecolor="#ffffff"
     bordercolor="#666666"
     borderopacity="1.0"
     inkscape:pageopacity="0.0"
     inkscape:pageshadow="2"
     inkscape:zoom="0.98994949"
     inkscape:cx="305.30424"
     inkscape:cy="416.12323"
     inkscape:document-units="mm"
     inkscape:current-layer="layer1"
     showgrid="false"
     inkscape:window-width="1920"
     inkscape:window-height="1017"
     inkscape:window-x="-8"
     inkscape:window-y="-8"
     inkscape:window-maximized="1" />
  <metadata
     id="metadata5">
    <rdf:RDF>
      <cc:Work
         rdf:about="">
        <dc:format>image/svg+xml</dc:format>
        <dc:type
           rdf:resource="http://purl.org/dc/dcmitype/StillImage" />
        <dc:title></dc:title>
      </cc:Work>
    </rdf:RDF>
  </metadata>
  <g
     inkscape:label="Layer 1"
     inkscape:groupmode="layer"
     id="layer1"
     transform="translate(0,-87)">
    <g
       id="g895"
       transform="matrix(1.1974933,0,0,1.1974933,-12.003295,6.757406)">
      <path
         id="path815"
         d="m 152.02147,154.70697 c 0,-29.97807 -24.33655,-54.31463 -54.314624,-54.31463 -29.978072,0 -54.314624,24.33656 -54.314624,54.31463 0,29.97807 24.336552,54.31462 54.314624,54.31462 29.978074,0 54.314624,-24.33655 54.314624,-54.31462"
         inkscape:connector-curvature="0"
         style="fill:#000080;stroke-width:0.1500404" />
      <g
         style="opacity:1"
         transform="matrix(0.94694318,0,0,0.94694318,2.95727,135.44282)"
         id="g881">
        <g
           id="g876">
          <circle
             id="circle849"
             r="57.93034"
             cy="20.356722"
             cx="100.06243"
             style="fill:#302e31;stroke:none;stroke-width:5.61503553" />
        </g>
        <path
           style="fill:#c4c2c4;stroke-width:1.61816585"
           inkscape:connector-curvature="0"
           d="m 70.611812,-10.064797 c 1.779982,-8.592461 7.60538,-16.343475 15.437303,-20.227073 -1.362496,1.383531 -3.009789,2.44343 -4.271958,3.948324 -5.16195,5.566491 -7.492109,13.624957 -6.068123,21.0361571 1.796165,11.3109796 12.427515,20.5507069 23.948856,20.3888899 8.93228,0.399687 17.63801,-4.741226 22.00706,-12.4922403 9.35299,0.3171605 18.44709,5.1457675 23.78703,12.8967823 2.73471,4.045415 4.87068,8.786641 5.01632,13.722047 -1.73144,-6.553572 -6.0843,-12.378969 -12.02297,-15.663846 -5.74449,-3.236332 -12.7997,-4.0615966 -19.09436,-2.152161 -7.89665,2.265432 -14.41786,8.721914 -16.66711,16.667109 -1.90944,6.327029 -1.09226,13.301324 1.90944,19.094358 -4.17487,7.233201 -11.715525,12.39515 -19.903445,13.94859 -6.294665,1.320423 -12.912964,0.300978 -18.770724,-2.346341 5.242857,1.529167 10.938801,1.796164 16.149295,-0.05712 6.990477,-2.313977 12.767329,-7.929013 15.30785,-14.854763 C 100.19188,36.303262 99.123895,27.338623 94.382669,20.865959 90.838886,15.768736 85.256213,12.176408 79.188091,10.898057 77.262474,10.555006 75.320675,10.399662 73.378876,10.221664 70.288179,3.9917251 69.155463,-3.2414765 70.708902,-10.00541 Z"
           id="path851" />
      </g>
      <path
         id="path817"
         d="m 136.11719,132.20091 c 0,-8.77736 -7.12692,-15.90428 -15.90428,-15.90428 -8.77737,0 -15.90429,7.12692 -15.90429,15.90428 0,8.77736 7.12692,15.90428 15.90429,15.90428 8.77736,0 15.90428,-7.12692 15.90428,-15.90428"
         inkscape:connector-curvature="0"
         style="fill:#ffffff;stroke-width:0.1500404" />
      <path
         id="path819"
         d="m 167.92575,100.37734 c 0,-8.777363 -7.12692,-15.904282 -15.90428,-15.904282 -8.77736,0 -15.90428,7.126919 -15.90428,15.904282 0,8.77736 7.12692,15.90428 15.90428,15.90428 8.77736,0 15.90428,-7.11191 15.90428,-15.90428"
         inkscape:connector-curvature="0"
         style="fill:#000080;stroke-width:0.1500404" />
      <g
         transform="matrix(0.1500404,0,0,0.1500404,26.662717,83.647836)"
         id="g827">
		<path
   id="path821"
   d="m 258.1,627.8 h 117.3 v 26.7 H 227.8 V 417 h 30.3 z"
   inkscape:connector-curvature="0"
   style="fill:#ffffff" />

		<path
   id="path823"
   d="m 515.5,654.5 v -23.8 c -16,22.5 -31.9,31.3 -57,31.3 -33.2,0 -54.4,-18.2 -54.4,-46.6 V 483.8 h 27 v 120.9 c 0,20.5 13.7,33.6 35.2,33.6 28.3,0 46.6,-22.8 46.6,-57.7 v -96.8 h 27 v 170.7 z"
   inkscape:connector-curvature="0"
   style="fill:#ffffff" />

		<path
   id="path825"
   d="m 738.4,659.1 c -8.8,2.3 -13,2.9 -18.6,2.9 -17.6,0 -26.1,-7.8 -28,-25.1 -19.2,17.6 -36.5,25.1 -58,25.1 -34.5,0 -56,-19.5 -56,-50.5 0,-22.2 10.1,-37.5 30,-45.6 10.4,-4.2 16.3,-5.5 54.7,-10.4 21.5,-2.6 28.3,-7.5 28.3,-18.9 v -7.2 c 0,-16.3 -13.7,-25.4 -38.1,-25.4 -25.4,0 -37.8,9.4 -40.1,30.3 h -27.4 c 0.7,-16.9 3.9,-26.7 11.7,-35.5 11.4,-12.7 31.9,-19.9 56.7,-19.9 42,0 64.2,16.3 64.2,46.6 v 100.4 c 0,8.5 5.2,13.4 14.7,13.4 1.6,0 2.9,0 5.9,-0.7 z m -47.6,-89 c -9.1,4.2 -15,5.5 -43.7,9.4 -29,4.2 -41.1,13.4 -41.1,31.3 0,17.3 12.4,27.4 33.6,27.4 16,0 29.3,-5.2 40.4,-15.3 8.1,-7.5 10.8,-13 10.8,-22.2 z"
   inkscape:connector-curvature="0"
   style="fill:#ffffff" />

	</g>
      <path
         id="path829"
         d="m 160.2887,122.80838 c 5.02635,9.87266 7.65206,20.7956 7.65206,31.88359 0,38.77043 -31.46347,70.23391 -70.233914,70.23391 -38.770439,0 -70.233911,-31.46348 -70.233911,-70.23391 0,-38.77044 31.463472,-70.233916 70.233911,-70.233916 12.468354,0 24.696654,3.315893 35.439544,9.587582"
         stroke-miterlimit="10"
         inkscape:connector-curvature="0"
         style="fill:none;stroke:#808080;stroke-width:1.62961888;stroke-miterlimit:10;stroke-dasharray:6.12877524" />
    </g>
  </g>
</svg>
