<?xml version="1.0" encoding="UTF-8" standalone="no"?>
<svg
   xmlns:osb="http://www.openswatchbook.org/uri/2009/osb"
   xmlns:dc="http://purl.org/dc/elements/1.1/"
   xmlns:cc="http://creativecommons.org/ns#"
   xmlns:rdf="http://www.w3.org/1999/02/22-rdf-syntax-ns#"
   xmlns:svg="http://www.w3.org/2000/svg"
   xmlns="http://www.w3.org/2000/svg"
   xmlns:xlink="http://www.w3.org/1999/xlink"
   id="svg8"
   version="1.1"
   viewBox="0 0 198.59782 198.59783"
   height="198.59782mm"
   width="198.59782mm">
  <defs
     id="defs2">
    <linearGradient
       id="linearGradient2920">
      <stop
         id="stop2916"
         offset="0"
         style="stop-color:#c1ac08;stop-opacity:1" />
      <stop
         id="stop2918"
         offset="1"
         style="stop-color:#f7df1e;stop-opacity:1" />
    </linearGradient>
    <linearGradient
       osb:paint="gradient"
       id="linearGradient2900">
      <stop
         id="stop2896"
         offset="0"
         style="stop-color:#222222;stop-opacity:1;" />
      <stop
         id="stop2898"
         offset="1"
         style="stop-color:#222222;stop-opacity:0" />
    </linearGradient>
    <linearGradient
       gradientTransform="matrix(0.26458333,0,0,0.26458333,27.370721,58.19489)"
       gradientUnits="userSpaceOnUse"
       y2="412.27914"
       x2="322.55786"
       y1="585.43988"
       x1="320.35583"
       id="linearGradient2922"
       xlink:href="#linearGradient2920" />
    <linearGradient
       gradientUnits="userSpaceOnUse"
       y2="499.24814"
       x2="490.16827"
       y1="533.0882"
       x1="491.17712"
       id="linearGradient2934"
       xlink:href="#linearGradient2920" />
    <linearGradient
       gradientTransform="matrix(0.26458333,0,0,0.26458333,27.735215,57.911355)"
       y2="499.24814"
       x2="490.16827"
       y1="533.0882"
       x1="491.17712"
       gradientUnits="userSpaceOnUse"
       id="linearGradient3100"
       xlink:href="#linearGradient2920" />
    <linearGradient
       gradientUnits="userSpaceOnUse"
       y2="561.6828"
       x2="642.09631"
       y1="376.76456"
       x1="525.38947"
       id="linearGradient3166"
       xlink:href="#linearGradient2920" />
    <linearGradient
       gradientUnits="userSpaceOnUse"
       y2="323.11737"
       x2="321.6387"
       y1="583.73669"
       x1="312.5358"
       id="linearGradient3322"
       xlink:href="#linearGradient2920" />
    <linearGradient
       gradientUnits="userSpaceOnUse"
       y2="355.59393"
       x2="630.22369"
       y1="220.09918"
       x1="528.72632"
       id="linearGradient3332"
       xlink:href="#linearGradient2920" />
    <linearGradient
       gradientUnits="userSpaceOnUse"
       y2="339.02887"
       x2="513.65747"
       y1="363.27252"
       x1="519.46582"
       id="linearGradient3342"
       xlink:href="#linearGradient2920" />
    <linearGradient
       gradientUnits="userSpaceOnUse"
       y2="502.71832"
       x2="619.09424"
       y1="385.03555"
       x1="508.04517"
       id="linearGradient3352"
       xlink:href="#linearGradient2920" />
    <linearGradient
       gradientUnits="userSpaceOnUse"
       y2="494.21848"
       x2="488.82907"
       y1="522.89661"
       x1="496.14673"
       id="linearGradient3362"
       xlink:href="#linearGradient2920" />
    <linearGradient
       gradientUnits="userSpaceOnUse"
       y2="578.95477"
       x2="155.99356"
       y1="537.58533"
       x1="99.20945"
       id="linearGradient3372"
       xlink:href="#linearGradient2920" />
  </defs>
  <metadata
     id="metadata5">
    <rdf:RDF>
      <cc:Work
         rdf:about="">
        <dc:format>image/svg+xml</dc:format>
        <dc:type
           rdf:resource="http://purl.org/dc/dcmitype/StillImage" />
        <dc:title></dc:title>
      </cc:Work>
    </rdf:RDF>
  </metadata>
  <g
     transform="translate(-27.60855,-57.907357)"
     id="layer1">
    <path
       id="path14"
       d="m 169.86393,113.97033 -75.236851,0.87549 -0.007,10e-4 c -3.36199,0.39704 -6.01853,2.26266 -8.13172,5.20181 -2.11319,2.93914 -3.69147,6.95297 -4.92334,11.67447 -2.46374,9.44297 -3.53737,21.72175 -4.650917,33.89981 -1.113543,12.17805 -2.267391,24.25481 -4.879028,33.274 -1.30582,4.5096 -2.976862,8.25271 -5.179354,10.86139 -2.202493,2.60867 -4.926382,4.08623 -8.377884,4.08623 h -0.0016 -0.0016 c -3.495427,0.10617 -5.972947,-0.0874 -7.823187,-0.61142 -1.850241,-0.52413 -3.075021,-1.37329 -4.089654,-2.6025 -2.029265,-2.45844 -3.195747,-6.45826 -6.626815,-12.28269 l -0.193652,0.10882 c 3.419952,5.80556 4.569963,9.79419 6.646509,12.30989 1.038273,1.25786 2.314084,2.13997 4.20125,2.67454 1.887166,0.53458 4.385096,0.72591 7.892113,0.61942 3.515228,-8.3e-4 6.313936,-1.51827 8.54692,-4.16306 2.233704,-2.64566 3.90984,-6.41552 5.22038,-10.94141 2.621081,-9.0518 3.773641,-21.13541 4.887235,-33.31401 1.113594,-12.1786 2.188164,-24.4522 4.644354,-33.86622 1.22809,-4.70699 2.8021,-8.69774 4.89052,-11.60243 2.08695,-2.90265 4.67898,-4.71988 7.96924,-5.11059 l 75.227011,-0.87711 z"
       style="color:#000000;font-style:normal;font-variant:normal;font-weight:normal;font-stretch:normal;font-size:medium;line-height:normal;font-family:sans-serif;font-variant-ligatures:normal;font-variant-position:normal;font-variant-caps:normal;font-variant-numeric:normal;font-variant-alternates:normal;font-feature-settings:normal;text-indent:0;text-align:start;text-decoration:none;text-decoration-line:none;text-decoration-style:solid;text-decoration-color:#000000;letter-spacing:normal;word-spacing:normal;text-transform:none;writing-mode:lr-tb;direction:ltr;text-orientation:mixed;dominant-baseline:auto;baseline-shift:baseline;text-anchor:start;white-space:normal;shape-padding:0;clip-rule:nonzero;display:inline;overflow:visible;visibility:visible;opacity:1;isolation:auto;mix-blend-mode:normal;color-interpolation:sRGB;color-interpolation-filters:linearRGB;solid-color:#000000;solid-opacity:1;vector-effect:none;fill:#000000;fill-opacity:1;fill-rule:nonzero;stroke:#222222;stroke-width:4;stroke-linecap:butt;stroke-linejoin:miter;stroke-miterlimit:4;stroke-dasharray:none;stroke-dashoffset:0;stroke-opacity:1;color-rendering:auto;image-rendering:auto;shape-rendering:auto;text-rendering:auto;enable-background:accumulate" />
    <path
       id="path18"
       d="m 168.2507,113.76546 c -0.52902,0.0318 -1.03693,0.16408 -1.52295,0.38893 -0.97201,0.44967 -1.85512,1.26763 -2.66516,2.39602 -1.62009,2.25681 -2.95659,5.76065 -4.11263,10.12674 -2.31207,8.73215 -3.89323,20.90923 -5.4485,33.36843 -1.55526,12.45919 -3.08409,25.20104 -5.28439,35.04902 -1.10014,4.92399 -2.36892,9.12398 -3.88779,12.19945 -1.518,3.07374 -3.28107,5.00931 -5.35167,5.4563 l -83.972487,1.09477 0.0033,0.21609 84.002037,-1.09479 0.0119,-0.001 c 2.17788,-0.46829 3.9754,-2.47391 5.50758,-5.57635 1.53218,-3.10244 2.80374,-7.31468 3.90585,-12.24746 2.20423,-9.86557 3.73248,-22.61131 5.28767,-35.06983 1.55517,-12.45851 3.13624,-24.63155 5.44193,-33.33962 1.15283,-4.35404 2.48892,-7.84178 4.07982,-10.05789 0.79544,-1.10808 1.65353,-1.89625 2.57818,-2.32403 0.92465,-0.42776 1.9169,-0.50094 3.00981,-0.16805 l 0.0657,-0.20647 c -0.56936,-0.17343 -1.11864,-0.24148 -1.64768,-0.20968 z"
       style="color:#000000;font-style:normal;font-variant:normal;font-weight:normal;font-stretch:normal;font-size:medium;line-height:normal;font-family:sans-serif;font-variant-ligatures:normal;font-variant-position:normal;font-variant-caps:normal;font-variant-numeric:normal;font-variant-alternates:normal;font-feature-settings:normal;text-indent:0;text-align:start;text-decoration:none;text-decoration-line:none;text-decoration-style:solid;text-decoration-color:#000000;letter-spacing:normal;word-spacing:normal;text-transform:none;writing-mode:lr-tb;direction:ltr;text-orientation:mixed;dominant-baseline:auto;baseline-shift:baseline;text-anchor:start;white-space:normal;shape-padding:0;clip-rule:nonzero;display:inline;overflow:visible;visibility:visible;opacity:1;isolation:auto;mix-blend-mode:normal;color-interpolation:sRGB;color-interpolation-filters:linearRGB;solid-color:#000000;solid-opacity:1;vector-effect:none;fill:#222222;fill-opacity:1;fill-rule:nonzero;stroke:#222222;stroke-width:4;stroke-linecap:butt;stroke-linejoin:miter;stroke-miterlimit:4;stroke-dasharray:none;stroke-dashoffset:0;stroke-opacity:1;color-rendering:auto;image-rendering:auto;shape-rendering:auto;text-rendering:auto;enable-background:accumulate" />
    <path
       id="path31"
       d="m 169.94927,113.85507 c -0.15414,0.007 -0.27582,0.0146 -0.36433,0.024 -0.0444,0.005 -0.0797,0.009 -0.11002,0.016 -0.0151,0.003 -0.0281,0.005 -0.0426,0.0119 -0.0146,0.005 -0.0312,0.009 -0.0574,0.0336 -0.0132,0.0132 -0.0327,0.0675 -0.0328,0.0688 -1.4e-4,10e-4 0.009,0.0645 0.0229,0.0817 0.0271,0.0343 0.0455,0.0373 0.0608,0.0433 0.0305,0.0119 0.0577,0.0165 0.0952,0.0224 0.0749,0.0119 0.1848,0.0211 0.33807,0.0305 l 0.009,-0.10882 c 0.0351,-0.001 0.0522,-0.005 0.0919,-0.007 0.60427,-0.025 1.73912,-0.0216 3.23791,0.0512 2.99762,0.14547 7.4533,0.57294 12.06054,1.62617 4.60726,1.05324 9.36583,2.73297 12.97464,5.37307 3.60842,2.63979 6.06745,6.22825 6.10659,11.13509 0,5.6e-4 0,8.1e-4 0,0.001 -1.04896,11.11757 -8.90905,17.23667 -18.75136,20.55437 -9.84579,3.31887 -21.66394,3.81277 -30.54111,3.64767 l -0.005,0.21768 c 8.88937,0.16532 20.72703,-0.32628 30.61826,-3.66048 9.89123,-3.33418 17.84761,-9.53322 18.90071,-20.74964 l 0.001,-0.007 v -0.005 c -0.0392,-4.97772 -2.54758,-8.64108 -6.1952,-11.30953 -3.6476,-2.66848 -8.43311,-4.35254 -13.05833,-5.40989 -4.62522,-1.05736 -9.09166,-1.48658 -12.09993,-1.63257 -1.50414,-0.073 -2.64272,-0.0751 -3.25925,-0.0496 z"
       style="color:#000000;font-style:normal;font-variant:normal;font-weight:normal;font-stretch:normal;font-size:medium;line-height:normal;font-family:sans-serif;font-variant-ligatures:normal;font-variant-position:normal;font-variant-caps:normal;font-variant-numeric:normal;font-variant-alternates:normal;font-feature-settings:normal;text-indent:0;text-align:start;text-decoration:none;text-decoration-line:none;text-decoration-style:solid;text-decoration-color:#000000;letter-spacing:normal;word-spacing:normal;text-transform:none;writing-mode:lr-tb;direction:ltr;text-orientation:mixed;dominant-baseline:auto;baseline-shift:baseline;text-anchor:start;white-space:normal;shape-padding:0;clip-rule:nonzero;display:inline;overflow:visible;visibility:visible;opacity:1;isolation:auto;mix-blend-mode:normal;color-interpolation:sRGB;color-interpolation-filters:linearRGB;solid-color:#000000;solid-opacity:1;vector-effect:none;fill:#000000;fill-opacity:1;fill-rule:nonzero;stroke:#222222;stroke-width:4;stroke-linecap:butt;stroke-linejoin:miter;stroke-miterlimit:4;stroke-dasharray:none;stroke-dashoffset:0;stroke-opacity:1;color-rendering:auto;image-rendering:auto;shape-rendering:auto;text-rendering:auto;enable-background:accumulate" />
    <path
       id="path31-8"
       d="m 155.04795,156.46034 -0.009,0.21766 c 8.30446,0.32065 17.98676,-0.11597 26.40552,1.79742 8.41276,1.91211 15.55316,6.1538 18.84819,15.85034 -0.45339,7.27251 -2.80413,12.4125 -6.34948,16.03438 -3.54926,3.6259 -8.29947,5.73572 -13.55395,6.92082 -10.50897,2.3702 -23.01934,1.03623 -31.85565,0.79388 l -0.007,0.21766 c 8.81925,0.2419 21.34699,1.58245 31.91143,-0.80027 5.28224,-1.19137 10.07759,-3.31621 13.66557,-6.98164 3.58796,-3.66541 5.96136,-8.86988 6.41346,-16.19443 l 0.001,-0.0208 -0.007,-0.0192 c -3.31598,-9.78229 -10.55456,-14.08854 -19.01722,-16.01199 -8.46267,-1.92344 -18.15857,-1.48375 -26.44819,-1.80383 z"
       style="color:#000000;font-style:normal;font-variant:normal;font-weight:normal;font-stretch:normal;font-size:medium;line-height:normal;font-family:sans-serif;font-variant-ligatures:normal;font-variant-position:normal;font-variant-caps:normal;font-variant-numeric:normal;font-variant-alternates:normal;font-feature-settings:normal;text-indent:0;text-align:start;text-decoration:none;text-decoration-line:none;text-decoration-style:solid;text-decoration-color:#000000;letter-spacing:normal;word-spacing:normal;text-transform:none;writing-mode:lr-tb;direction:ltr;text-orientation:mixed;dominant-baseline:auto;baseline-shift:baseline;text-anchor:start;white-space:normal;shape-padding:0;clip-rule:nonzero;display:inline;overflow:visible;visibility:visible;opacity:1;isolation:auto;mix-blend-mode:normal;color-interpolation:sRGB;color-interpolation-filters:linearRGB;solid-color:#000000;solid-opacity:1;vector-effect:none;fill:#000000;fill-opacity:1;fill-rule:nonzero;stroke:#222222;stroke-width:4;stroke-linecap:butt;stroke-linejoin:miter;stroke-miterlimit:4;stroke-dasharray:none;stroke-dashoffset:0;stroke-opacity:1;color-rendering:auto;image-rendering:auto;shape-rendering:auto;text-rendering:auto;enable-background:accumulate" />
    <path
       id="path58"
       d="m 151.6804,183.83947 -0.009,0.21608 10.44241,0.43374 c -0.4338,2.96751 -0.5795,6.34319 0.38236,9.07997 0.97437,2.7723 3.10198,4.87955 7.13885,5.16021 l 0.0147,-0.21609 c -3.96443,-0.27562 -5.98819,-2.29936 -6.94191,-5.01294 -0.95371,-2.71357 -0.8106,-6.12082 -0.36597,-9.09917 l 0.0181,-0.12008 z"
       style="color:#000000;font-style:normal;font-variant:normal;font-weight:normal;font-stretch:normal;font-size:medium;line-height:normal;font-family:sans-serif;font-variant-ligatures:normal;font-variant-position:normal;font-variant-caps:normal;font-variant-numeric:normal;font-variant-alternates:normal;font-feature-settings:normal;text-indent:0;text-align:start;text-decoration:none;text-decoration-line:none;text-decoration-style:solid;text-decoration-color:#000000;letter-spacing:normal;word-spacing:normal;text-transform:none;writing-mode:lr-tb;direction:ltr;text-orientation:mixed;dominant-baseline:auto;baseline-shift:baseline;text-anchor:start;white-space:normal;shape-padding:0;clip-rule:nonzero;display:inline;overflow:visible;visibility:visible;opacity:1;isolation:auto;mix-blend-mode:normal;color-interpolation:sRGB;color-interpolation-filters:linearRGB;solid-color:#000000;solid-opacity:1;vector-effect:none;fill:#000000;fill-opacity:1;fill-rule:nonzero;stroke:#222222;stroke-width:2;stroke-linecap:butt;stroke-linejoin:miter;stroke-miterlimit:4;stroke-dasharray:none;stroke-dashoffset:0;stroke-opacity:1;color-rendering:auto;image-rendering:auto;shape-rendering:auto;text-rendering:auto;enable-background:accumulate" />
    <path
       style="fill:none;stroke:none;stroke-width:1.71354306;stroke-linecap:butt;stroke-linejoin:miter;stroke-miterlimit:4;stroke-dasharray:none;stroke-opacity:1"
       d="M 132.81542,158.26076 Z"
       id="path77" />
    <path
       id="path98"
       d="m 71.951821,198.07484 v 0.001 l -32.114947,0.21769 0.0016,0.21767 32.338138,-0.21927 v -0.21769 z"
       style="color:#000000;font-style:normal;font-variant:normal;font-weight:normal;font-stretch:normal;font-size:medium;line-height:normal;font-family:sans-serif;font-variant-ligatures:normal;font-variant-position:normal;font-variant-caps:normal;font-variant-numeric:normal;font-variant-alternates:normal;font-feature-settings:normal;text-indent:0;text-align:start;text-decoration:none;text-decoration-line:none;text-decoration-style:solid;text-decoration-color:#000000;letter-spacing:normal;word-spacing:normal;text-transform:none;writing-mode:lr-tb;direction:ltr;text-orientation:mixed;dominant-baseline:auto;baseline-shift:baseline;text-anchor:start;white-space:normal;shape-padding:0;clip-rule:nonzero;display:inline;overflow:visible;visibility:visible;opacity:1;isolation:auto;mix-blend-mode:normal;color-interpolation:sRGB;color-interpolation-filters:linearRGB;solid-color:#000000;solid-opacity:1;vector-effect:none;fill:#000000;fill-opacity:1;fill-rule:nonzero;stroke:#222222;stroke-width:4;stroke-linecap:butt;stroke-linejoin:miter;stroke-miterlimit:4;stroke-dasharray:none;stroke-dashoffset:0;stroke-opacity:1;color-rendering:auto;image-rendering:auto;shape-rendering:auto;text-rendering:auto;enable-background:accumulate" />
    <path
       id="path1161"
       d="m 172.04757,154.51168 c 0,-0.17342 -0.30017,-0.20928 -0.95444,-0.11399 -3.30707,0.48161 -3.70744,-2.57949 -1.48313,-11.34006 0.39038,-1.53753 0.66902,-2.82416 0.61923,-2.85916 -0.0498,-0.035 -2.69712,0.0277 -5.88295,0.13956 -3.18583,0.11174 -5.82953,0.16638 -5.87487,0.1214 -0.11399,-0.11305 1.07409,-6.75247 1.76718,-9.87617 1.81253,-8.16903 4.17886,-13.65414 6.48577,-15.03393 0.62766,-0.37541 1.14925,-0.43211 4.08805,-0.44442 11.15003,-0.0467 22.61149,3.0883 27.84708,7.61689 4.7689,4.1249 5.82969,9.30363 3.19029,15.57507 -1.41241,3.35603 -3.46955,6.04052 -6.33431,8.26603 -4.50415,3.49906 -10.49919,5.91712 -18.27963,7.37293 -4.02417,0.75298 -5.18827,0.88219 -5.18827,0.5759 z"
       style="fill:#f7df1e;fill-opacity:0;stroke:none;stroke-width:1.73093975;stroke-miterlimit:4;stroke-dasharray:none;stroke-opacity:1" />
    <path
       id="path1163"
       d="m 156.44229,154.2604 c 0.0863,-0.76919 0.47489,-3.66542 0.86328,-6.43606 l 0.70617,-5.03755 2.02116,-0.14107 c 1.11162,-0.0776 3.24428,-0.15152 4.73922,-0.16427 l 2.71806,-0.0232 -0.52063,2.24499 c -1.10122,4.74873 -1.21155,7.97048 -0.33066,9.65559 0.39745,0.76032 0.39646,0.77273 -0.0696,0.87988 -0.26005,0.0598 -2.68034,0.17879 -5.37842,0.26447 l -4.9056,0.15576 z"
       style="fill:#ffcc00;fill-opacity:0;stroke:none;stroke-width:1.73093975;stroke-miterlimit:4;stroke-dasharray:none;stroke-opacity:1" />
    <path
       id="path1165"
       d="m 168.45441,197.35741 c -1.55166,-0.34693 -2.3918,-0.78446 -3.28826,-1.7125 -0.89971,-0.93141 -1.52958,-2.17233 -1.84927,-3.64337 -0.29054,-1.33684 -0.31368,-5.7694 -0.0387,-7.38125 0.10286,-0.60231 0.15801,-1.12574 0.12272,-1.16319 -0.0353,-0.0375 -2.42456,-0.17243 -5.30935,-0.3 -2.88482,-0.12763 -5.27848,-0.26089 -5.31925,-0.29627 -0.0408,-0.0355 0.29442,-2.70936 0.74487,-5.94217 0.45045,-3.2328 1.19144,-8.87738 1.64664,-12.54352 l 0.82765,-6.66569 4.82783,0.0494 c 6.15536,0.063 12.20066,0.37793 15.49505,0.80729 11.06277,1.44184 17.74889,5.35677 21.54131,12.61307 0.61313,1.17315 1.18602,2.50339 1.27311,2.9561 0.0871,0.4527 0.0322,1.76372 -0.12206,2.91335 -1.55235,11.57204 -9.30257,18.25249 -23.25378,20.04408 -3.85619,0.49521 -5.93101,0.57045 -7.29863,0.26467 z"
       style="fill:#ffcc00;fill-opacity:0;stroke:none;stroke-width:1.73093975;stroke-miterlimit:4;stroke-dasharray:none;stroke-opacity:1" />
    <path
       id="path1167"
       d="m 154.3096,197.38482 c -2.28321,-0.11041 -4.18408,-0.23269 -4.22414,-0.27175 -0.04,-0.0391 0.17964,-1.23969 0.48825,-2.66804 0.50076,-2.3178 1.71141,-8.88419 1.71141,-9.28248 0,-0.0854 0.68214,-0.12007 1.51587,-0.077 0.83373,0.043 2.77911,0.137 4.32303,0.20878 l 2.80717,0.13053 0.005,3.21161 c 0.007,4.16894 0.61774,6.28812 2.37769,8.24306 l 0.6956,0.77267 -2.77429,-0.0334 c -1.52585,-0.0184 -4.64237,-0.12365 -6.92557,-0.23405 z"
       style="fill:#ffcc00;fill-opacity:0;stroke:none;stroke-width:1.73093975;stroke-miterlimit:4;stroke-dasharray:none;stroke-opacity:1" />
    <path
       id="path1169"
       d="m 53.385095,212.75115 c -3.190458,-0.36107 -5.157441,-1.36846 -6.487347,-3.32255 -0.726823,-1.06794 -5.177939,-9.81766 -5.04747,-9.922 0.03142,-0.0251 6.593116,-0.0962 14.581573,-0.158 l 14.524465,-0.1124 -0.785025,2.19958 c -1.985474,5.56316 -4.484675,8.95674 -7.812233,10.60799 -1.629549,0.80863 -5.430996,1.10825 -8.973963,0.70731 z"
       style="fill:#ffcc00;fill-opacity:0;stroke:none;stroke-width:1.73093975;stroke-miterlimit:4;stroke-dasharray:none;stroke-opacity:1" />
    <path
       id="path1187"
       d="m 171.15608,153.46532 c -0.67558,-0.0452 -1.34675,-0.17796 -1.49146,-0.29508 -0.79486,-0.64338 -0.55362,-3.71256 0.71107,-9.04684 0.87489,-3.69014 0.91472,-4.12448 0.42238,-4.60466 -0.30312,-0.29564 -0.9565,-0.32688 -4.77219,-0.22821 -2.43152,0.0629 -4.88654,0.15437 -5.45556,0.20333 l -1.0346,0.0891 0.51803,-2.88804 c 1.92849,-10.75114 4.19663,-17.48816 6.67425,-19.82438 l 0.77272,-0.72861 3.80146,0.009 c 5.45387,0.014 9.54108,0.51472 14.61247,1.79002 11.39962,2.86663 17.32152,8.59587 16.21874,15.69109 -1.38485,8.9102 -8.71895,15.34628 -20.99059,18.42043 -3.32317,0.83247 -7.34138,1.58895 -8.15219,1.53476 -0.33341,-0.0224 -1.15893,-0.0774 -1.83453,-0.12259 z"
       style="fill:none;fill-opacity:1;stroke:none;stroke-width:1.73093975;stroke-miterlimit:4;stroke-dasharray:none;stroke-opacity:1" />
    <path
       id="path60-7"
       d="m 107.43692,159.09176 c -0.97018,-0.0782 -1.94047,-0.0566 -2.90956,0.0466 -3.87641,0.41229 -7.741139,2.12325 -11.599512,3.98203 l 0.07748,0.1536 c 3.854973,-1.85716 7.704482,-3.55758 11.541422,-3.96568 3.83694,-0.4081 7.66062,0.46785 11.5014,3.7806 l 0.007,0.007 0.007,0.004 c 9.21943,5.09956 17.17629,2.7103 24.98168,-0.33866 l -0.0646,-0.15864 c -7.79666,3.04556 -15.66907,5.41629 -24.83063,0.34874 l 0.0142,0.0113 c -2.90442,-2.50514 -5.81688,-3.6356 -8.72738,-3.87001 z"
       style="color:#000000;font-style:normal;font-variant:normal;font-weight:normal;font-stretch:normal;font-size:medium;line-height:normal;font-family:sans-serif;font-variant-ligatures:normal;font-variant-position:normal;font-variant-caps:normal;font-variant-numeric:normal;font-variant-alternates:normal;font-feature-settings:normal;text-indent:0;text-align:start;text-decoration:none;text-decoration-line:none;text-decoration-style:solid;text-decoration-color:#000000;letter-spacing:normal;word-spacing:normal;text-transform:none;writing-mode:lr-tb;direction:ltr;text-orientation:mixed;dominant-baseline:auto;baseline-shift:baseline;text-anchor:start;white-space:normal;shape-padding:0;clip-rule:nonzero;display:inline;overflow:visible;visibility:visible;opacity:1;isolation:auto;mix-blend-mode:normal;color-interpolation:sRGB;color-interpolation-filters:linearRGB;solid-color:#000000;solid-opacity:1;vector-effect:none;fill:#000000;fill-opacity:1;fill-rule:nonzero;stroke:#222222;stroke-width:2;stroke-linecap:butt;stroke-linejoin:round;stroke-miterlimit:4;stroke-dasharray:none;stroke-dashoffset:0;stroke-opacity:1;color-rendering:auto;image-rendering:auto;shape-rendering:auto;text-rendering:auto;enable-background:accumulate" />
    <path
       id="path58-0"
       d="m 157.27446,140.58216 -0.009,0.21608 10.44241,0.43374 c -0.4338,2.96751 -0.5795,6.34319 0.38236,9.07997 0.97437,2.7723 3.10198,4.87955 7.13885,5.16021 l 0.0147,-0.21609 c -3.96443,-0.27562 -5.98819,-2.29936 -6.94191,-5.01294 -0.95371,-2.71357 -0.8106,-6.12082 -0.36597,-9.09917 l 0.0181,-0.12008 z"
       style="color:#000000;font-style:normal;font-variant:normal;font-weight:normal;font-stretch:normal;font-size:medium;line-height:normal;font-family:sans-serif;font-variant-ligatures:normal;font-variant-position:normal;font-variant-caps:normal;font-variant-numeric:normal;font-variant-alternates:normal;font-feature-settings:normal;text-indent:0;text-align:start;text-decoration:none;text-decoration-line:none;text-decoration-style:solid;text-decoration-color:#000000;letter-spacing:normal;word-spacing:normal;text-transform:none;writing-mode:lr-tb;direction:ltr;text-orientation:mixed;dominant-baseline:auto;baseline-shift:baseline;text-anchor:start;white-space:normal;shape-padding:0;clip-rule:nonzero;display:inline;overflow:visible;visibility:visible;opacity:1;isolation:auto;mix-blend-mode:normal;color-interpolation:sRGB;color-interpolation-filters:linearRGB;solid-color:#000000;solid-opacity:1;vector-effect:none;fill:#000000;fill-opacity:1;fill-rule:nonzero;stroke:#222222;stroke-width:2;stroke-linecap:butt;stroke-linejoin:miter;stroke-miterlimit:4;stroke-dasharray:none;stroke-dashoffset:0;stroke-opacity:1;color-rendering:auto;image-rendering:auto;shape-rendering:auto;text-rendering:auto;enable-background:accumulate" />
    <path
       id="path60-7-4"
       d="m 110.13399,136.51884 c -0.97018,-0.0782 -1.94047,-0.0566 -2.90956,0.0466 -3.87642,0.41229 -7.741147,2.12325 -11.59952,3.98203 l 0.07748,0.1536 c 3.854973,-1.85716 7.70448,-3.55758 11.54143,-3.96568 3.83694,-0.4081 7.66062,0.46785 11.5014,3.7806 l 0.007,0.007 0.007,0.004 c 9.21943,5.09957 17.17629,2.71031 24.98168,-0.33866 l -0.0646,-0.15864 c -7.79666,3.04556 -15.66907,5.4163 -24.83063,0.34874 l 0.0142,0.0113 c -2.90442,-2.50514 -5.81688,-3.6356 -8.72738,-3.87001 z"
       style="color:#000000;font-style:normal;font-variant:normal;font-weight:normal;font-stretch:normal;font-size:medium;line-height:normal;font-family:sans-serif;font-variant-ligatures:normal;font-variant-position:normal;font-variant-caps:normal;font-variant-numeric:normal;font-variant-alternates:normal;font-feature-settings:normal;text-indent:0;text-align:start;text-decoration:none;text-decoration-line:none;text-decoration-style:solid;text-decoration-color:#000000;letter-spacing:normal;word-spacing:normal;text-transform:none;writing-mode:lr-tb;direction:ltr;text-orientation:mixed;dominant-baseline:auto;baseline-shift:baseline;text-anchor:start;white-space:normal;shape-padding:0;clip-rule:nonzero;display:inline;overflow:visible;visibility:visible;opacity:1;isolation:auto;mix-blend-mode:normal;color-interpolation:sRGB;color-interpolation-filters:linearRGB;solid-color:#000000;solid-opacity:1;vector-effect:none;fill:#000000;fill-opacity:1;fill-rule:nonzero;stroke:#222222;stroke-width:2;stroke-linecap:butt;stroke-linejoin:round;stroke-miterlimit:4;stroke-dasharray:none;stroke-dashoffset:0;stroke-opacity:1;color-rendering:auto;image-rendering:auto;shape-rendering:auto;text-rendering:auto;enable-background:accumulate" />
    <path
       id="path60-7-1"
       d="m 102.38317,181.42012 c -0.97018,-0.0782 -1.94047,-0.0566 -2.90956,0.0466 -3.876414,0.41229 -7.741144,2.12325 -11.599517,3.98203 l 0.07748,0.1536 c 3.854973,-1.85716 7.704483,-3.55758 11.541427,-3.96568 3.83694,-0.4081 7.66062,0.46785 11.5014,3.7806 l 0.007,0.007 0.007,0.004 c 9.21943,5.09956 17.17629,2.7103 24.98168,-0.33866 l -0.0646,-0.15864 c -7.79667,3.04556 -15.66908,5.41629 -24.83064,0.34874 l 0.0142,0.0113 c -2.90442,-2.50514 -5.81688,-3.6356 -8.72738,-3.87001 z"
       style="color:#000000;font-style:normal;font-variant:normal;font-weight:normal;font-stretch:normal;font-size:medium;line-height:normal;font-family:sans-serif;font-variant-ligatures:normal;font-variant-position:normal;font-variant-caps:normal;font-variant-numeric:normal;font-variant-alternates:normal;font-feature-settings:normal;text-indent:0;text-align:start;text-decoration:none;text-decoration-line:none;text-decoration-style:solid;text-decoration-color:#000000;letter-spacing:normal;word-spacing:normal;text-transform:none;writing-mode:lr-tb;direction:ltr;text-orientation:mixed;dominant-baseline:auto;baseline-shift:baseline;text-anchor:start;white-space:normal;shape-padding:0;clip-rule:nonzero;display:inline;overflow:visible;visibility:visible;opacity:1;isolation:auto;mix-blend-mode:normal;color-interpolation:sRGB;color-interpolation-filters:linearRGB;solid-color:#000000;solid-opacity:1;vector-effect:none;fill:#000000;fill-opacity:1;fill-rule:nonzero;stroke:#222222;stroke-width:2;stroke-linecap:butt;stroke-linejoin:round;stroke-miterlimit:4;stroke-dasharray:none;stroke-dashoffset:0;stroke-opacity:1;color-rendering:auto;image-rendering:auto;shape-rendering:auto;text-rendering:auto;enable-background:accumulate" />
    <path
       transform="matrix(0.26458333,0,0,0.26458333,27.60855,57.907357)"
       id="path3314"
       d="m 155.99356,578.9548 c 0.44429,-0.69448 2.45027,-3.76282 4.45772,-6.81853 4.93152,-7.50668 8.20686,-14.18341 11.39744,-23.23351 1.46902,-4.16687 3.08213,-8.48528 3.58469,-9.59644 0.50257,-1.11117 1.12983,-3.15673 1.39392,-4.54569 0.26409,-1.38896 1.86415,-8.43477 3.55568,-15.65737 5.60864,-23.9481 8.8686,-48.54399 14.79443,-111.62185 4.23602,-45.09061 5.99885,-61.39624 8.68212,-80.30713 6.85415,-48.30588 16.13113,-76.57322 30.07216,-91.6312 5.80116,-6.26595 10.08473,-8.99202 16.81952,-10.70398 4.34982,-1.10571 253.58283,-4.02733 254.62533,-2.98483 0.32666,0.32666 -0.0998,1.65615 -0.94768,2.95442 -2.62428,4.01825 -8.41965,20.01768 -11.65482,32.17579 -7.4836,28.12416 -13.51866,65.17302 -22.37597,137.36495 -8.38721,68.36043 -17.20445,123.59194 -20.23034,126.72363 -0.50998,0.52781 -0.92723,2.45715 -0.92723,4.28743 0,4.71255 -8.2669,29.25399 -12.68916,37.66958 -2.04299,3.88783 -5.47983,8.66361 -7.63742,10.61287 -3.65949,3.30612 -4.38054,3.54575 -10.73852,3.56871 -3.7486,0.0136 -52.27248,0.68489 -107.83087,1.49188 -129.62879,1.88286 -155.42168,1.92485 -154.351,0.25127 z m 225.06167,-84.49667 c 11.0234,-2.6987 30.94028,-9.80774 31.98737,-11.41743 1.25624,-1.93118 0.58264,-4.99374 -1.36713,-6.21569 -1.30662,-0.81889 -5.00877,0.0393 -15.85554,3.6756 -18.32489,6.14322 -30.02139,8.1949 -42.54389,7.4626 -15.11574,-0.88395 -28.43765,-5.38366 -39.39595,-13.30666 -20.13334,-14.55669 -41.49992,-15.78021 -70.6921,-4.04807 -17.17921,6.9042 -19.21148,8.13227 -19.21148,11.60921 0,5.55111 2.73448,5.6471 14.19095,0.49814 32.62044,-14.6608 51.99019,-14.66651 71.06988,-0.021 7.93169,6.08836 19.40842,10.80637 32.28072,13.27041 9.57844,1.83352 28.90009,1.09698 39.53717,-1.50714 z m 14.78816,-83.51959 c 9.92598,-1.87301 33.92284,-9.81388 36.03261,-11.92364 1.79607,-1.79608 0.90732,-6.19511 -1.43306,-7.09319 -0.90333,-0.34665 -7.61214,1.39682 -14.90846,3.87438 -17.22635,5.84939 -26.46175,7.64471 -39.32584,7.64471 -16.29414,0 -31.39818,-4.62138 -43.67467,-13.36314 -22.46369,-15.99578 -45.10045,-15.852 -80.57702,0.51182 -8.4985,3.91998 -8.87675,4.23326 -8.5863,7.11141 0.56883,5.63668 2.4281,5.56005 16.93942,-0.69817 31.33709,-13.51459 48.54365,-13.04201 68.82782,1.89035 6.44938,4.74776 18.88661,10.01862 28.68383,12.15615 8.52425,1.85978 27.87789,1.80344 38.02167,-0.11068 z m 14.50627,-86.18604 c 11.0234,-2.6987 30.94027,-9.80774 31.98737,-11.41743 1.25623,-1.93118 0.58263,-4.99374 -1.36713,-6.21569 -1.30663,-0.81889 -5.00877,0.0393 -15.85555,3.6756 -18.32488,6.14323 -30.02139,8.1949 -42.54389,7.4626 -15.11574,-0.88395 -28.43765,-5.38366 -39.39595,-13.30665 -20.13334,-14.55669 -41.49991,-15.78022 -70.69209,-4.04808 -17.17922,6.9042 -19.21148,8.13227 -19.21148,11.60921 0,5.55111 2.73447,5.6471 14.19094,0.49815 32.62044,-14.66081 51.99019,-14.66652 71.06988,-0.021 7.9317,6.08835 19.40843,10.80636 32.28073,13.2704 9.57844,1.83353 28.90008,1.09698 39.53717,-1.50714 z"
       style="fill:url(#linearGradient3322);fill-opacity:1;fill-rule:nonzero;stroke:none;stroke-width:7.63579893;stroke-linecap:butt;stroke-linejoin:round;stroke-miterlimit:4;stroke-dasharray:none;stroke-dashoffset:0;stroke-opacity:1;paint-order:normal" />
    <path
       transform="matrix(0.26458333,0,0,0.26458333,27.60855,57.907357)"
       id="path3324"
       d="m 541.7413,356.70663 c -7.23234,-7.54809 -9.90054,-20.31365 -7.74428,-37.05126 0.77829,-6.04138 0.78423,-8.72346 0.0204,-9.19555 -0.59312,-0.36657 -8.35322,-0.91894 -17.24467,-1.22749 -8.89144,-0.30855 -16.43726,-0.832 -16.76848,-1.16323 -0.83558,-0.83557 3.35842,-23.58244 7.37301,-39.98874 7.4922,-30.61824 16.30629,-47.47717 24.82173,-47.47717 1.88261,0 4.99259,0.45017 6.91106,1.00038 2.3027,0.66041 3.8281,0.66041 4.48851,0 2.22453,-2.22453 23.39141,-0.46971 44.03288,3.6505 35.71779,7.12958 59.61283,20.53345 68.1879,38.24988 4.92661,10.17854 4.93145,21.08136 0.0157,35.21899 -9.99839,28.75478 -39.37215,49.03543 -84.87105,58.59788 -6.667,1.4012 -14.98243,2.8664 -18.47871,3.25599 l -6.35689,0.70836 -4.38701,-4.57854 z"
       style="fill:url(#linearGradient3332);fill-opacity:1;fill-rule:nonzero;stroke:none;stroke-width:7.63579893;stroke-linecap:butt;stroke-linejoin:round;stroke-miterlimit:4;stroke-dasharray:none;stroke-dashoffset:0;stroke-opacity:1;paint-order:normal" />
    <path
       transform="matrix(0.26458333,0,0,0.26458333,27.60855,57.907357)"
       id="path3334"
       d="m 492.1264,358.23647 c 1.1323,-9.50053 5.56895,-39.95939 5.84825,-40.14982 0.14205,-0.0969 6.16767,0.0268 13.39026,0.27487 l 13.13198,0.45097 0.0114,12.26211 c 0.0126,13.53848 1.55534,20.00734 6.56609,27.53254 l 2.76915,4.15874 -6.69364,0.6323 c -3.6815,0.34777 -13.22362,0.63554 -21.2047,0.63949 l -14.51107,0.007 z"
       style="fill:url(#linearGradient3342);fill-opacity:1;fill-rule:nonzero;stroke:none;stroke-width:7.63579893;stroke-linecap:butt;stroke-linejoin:round;stroke-miterlimit:4;stroke-dasharray:none;stroke-dashoffset:0;stroke-opacity:1;paint-order:normal" />
    <path
       transform="matrix(0.26458333,0,0,0.26458333,27.60855,57.907357)"
       id="path3344"
       d="m 521.56918,521.52899 c -7.11328,-5.59531 -10.70528,-20.5454 -8.80589,-36.65059 0.61985,-5.25582 1.127,-9.97644 1.127,-10.49028 0,-0.51383 -8.04719,-1.24833 -17.88265,-1.63222 -9.83546,-0.38389 -18.04888,-0.8642 -18.25204,-1.06737 -0.20316,-0.20316 1.68331,-15.75565 4.19216,-34.56109 2.50885,-18.80545 5.12042,-39.06481 5.8035,-45.02081 l 1.24195,-10.8291 12.19601,0.4622 c 6.7078,0.25421 19.79801,0.69192 29.08936,0.97269 62.79653,1.89762 94.34481,16.13154 110.59955,49.9002 3.33999,6.93872 3.54486,7.91553 2.96612,14.14214 -0.88271,9.4967 -4.24335,21.54422 -8.37104,30.00917 -10.92455,22.40377 -31.57787,36.29283 -63.52731,42.72121 -13.0056,2.61678 -27.37925,4.16381 -38.68667,4.16381 -7.60633,0 -9.41102,-0.32728 -11.69005,-2.11996 z"
       style="fill:url(#linearGradient3352);fill-opacity:1;fill-rule:nonzero;stroke:none;stroke-width:7.63579893;stroke-linecap:butt;stroke-linejoin:round;stroke-miterlimit:4;stroke-dasharray:none;stroke-dashoffset:0;stroke-opacity:1;paint-order:normal" />
    <path
       transform="matrix(0.26458333,0,0,0.26458333,27.60855,57.907357)"
       id="path3354"
       d="m 478.97412,522.89661 -11.17758,-0.32049 2.23984,-10.8278 c 1.23191,-5.95529 3.03091,-15.32108 3.99776,-20.81286 l 1.75792,-9.98506 7.58477,0.64115 c 4.17163,0.35263 10.39571,0.64115 13.8313,0.64115 h 6.24653 l -0.45797,7.91119 c -0.5885,10.16608 1.26802,21.0496 4.77751,28.0072 l 2.77317,5.49786 -10.19783,-0.21592 c -5.60881,-0.11876 -15.22774,-0.36015 -21.37542,-0.53642 z"
       style="fill:url(#linearGradient3362);fill-opacity:1;fill-rule:nonzero;stroke:none;stroke-width:7.63579893;stroke-linecap:butt;stroke-linejoin:round;stroke-miterlimit:4;stroke-dasharray:none;stroke-dashoffset:0;stroke-opacity:1;paint-order:normal" />
    <path
       transform="matrix(0.26458333,0,0,0.26458333,27.60855,57.907357)"
       id="path3364"
       d="m 92.926604,580.20773 c -6.576612,-1.36754 -11.117575,-3.90631 -14.908347,-8.33498 -3.761528,-4.3945 -17.152924,-30.91071 -16.128747,-31.93642 0.345988,-0.34651 21.993657,-0.76472 48.10593,-0.92936 l 47.47686,-0.29935 -0.6404,2.31965 c -0.35223,1.27581 -2.88913,6.94176 -5.63757,12.591 -5.80861,11.93922 -12.92589,20.3721 -20.56422,24.36542 -4.77742,2.49764 -6.14994,2.7041 -19.28561,2.90108 -7.77817,0.11664 -16.066226,-0.18803 -18.417896,-0.67704 z"
       style="fill:url(#linearGradient3372);fill-opacity:1;fill-rule:nonzero;stroke:none;stroke-width:7.63579893;stroke-linecap:butt;stroke-linejoin:round;stroke-miterlimit:4;stroke-dasharray:none;stroke-dashoffset:0;stroke-opacity:1;paint-order:normal" />
  </g>
</svg>
